<svg height="480pt" viewBox="0 0 480.00005 480" width="480pt" xmlns="http://www.w3.org/2000/svg"><path d="m392 224h-72v-24c-.015625-13.25-10.75-23.984375-24-24h-16c-.011719-8.832031-7.167969-15.988281-16-16h-112c-8.832031.011719-15.988281 7.167969-16 16h-16c-13.25.015625-23.984375 10.75-24 24v24h-72c-13.25.015625-23.984375 10.75-24 24v41.375c-.015625 6.367188 2.515625 12.476562 7.03125 16.96875l8.96875 8.96875v140.6875c.015625 13.25 10.75 23.984375 24 24h336c13.25-.015625 23.984375-10.75 24-24v-140.6875l8.96875-8.96875c4.515625-4.492188 7.046875-10.601562 7.03125-16.96875v-41.375c-.015625-13.25-10.75-23.984375-24-24zm-240-48h112l.015625 16h-112.015625zm-40 24c.003906-4.417969 3.582031-7.996094 8-8h16c.011719 8.832031 7.167969 15.988281 16 16h112c8.832031-.011719 15.988281-7.167969 16-16h16c4.417969.003906 7.996094 3.582031 8 8v24h-192zm272 256c-.003906 4.417969-3.582031 7.996094-8 8h-336c-4.417969-.003906-7.996094-3.582031-8-8v-124.6875l13.65625 13.65625c4.492188 4.515625 10.601562 7.046875 16.96875 7.03125h17.375v51.71875c-.003906 5.351562 2.671875 10.347656 7.125 13.3125l39.992188 26.65625c5.367187 3.613281 12.386718 3.613281 17.757812.007812l40-26.664062c4.453125-2.964844 7.128906-7.960938 7.125-13.3125v-51.71875h32v51.71875c-.003906 5.351562 2.671875 10.347656 7.125 13.3125l39.992188 26.65625c5.367187 3.613281 12.386718 3.613281 17.757812.007812l40-26.664062c4.453125-2.964844 7.128906-7.960938 7.125-13.3125v-51.71875h17.375c6.367188.015625 12.476562-2.515625 16.96875-7.03125l13.65625-13.65625zm-288-72h80v19.71875l-40 26.664062-40-26.664062zm80-16h-80v-72c.003906-4.417969 3.582031-7.996094 8-8h64c4.417969.003906 7.996094 3.582031 8 8zm64 16h80v19.71875l-40 26.664062-40-26.664062zm80-16h-80v-72c.003906-4.417969 3.582031-7.996094 8-8h64c4.417969.003906 7.996094 3.582031 8 8zm80-78.625c-.007812 2.121094-.847656 4.152344-2.34375 5.65625l-38.625 38.625c-1.503906 1.496094-3.535156 2.335938-5.65625 2.34375h-17.375v-40c-.015625-13.25-10.75-23.984375-24-24h-64c-13.25.015625-23.984375 10.75-24 24v40h-32v-40c-.015625-13.25-10.75-23.984375-24-24h-64c-13.25.015625-23.984375 10.75-24 24v40h-17.375c-2.121094-.007812-4.152344-.847656-5.65625-2.34375l-38.625-38.625c-1.496094-1.503906-2.335938-3.535156-2.34375-5.65625v-41.375c.003906-4.417969 3.582031-7.996094 8-8h368c4.417969.003906 7.996094 3.582031 8 8zm0 0"/><path d="m128 304h16v16h-16zm0 0"/><path d="m128 336h16v16h-16zm0 0"/><path d="m272 304h16v16h-16zm0 0"/><path d="m272 336h16v16h-16zm0 0"/><path d="m392 0c-45.46875.0625-83.417969 34.722656-87.59375 80h-40.40625c-.011719-8.832031-7.167969-15.988281-16-16h-16c-3.902344.015625-7.664062 1.464844-10.566406 4.078125l-53.433594-40.074219v-12.003906c-.011719-8.832031-7.167969-15.9882812-16-16h-16c-8.832031.0117188-15.988281 7.167969-16 16v12.003906l-53.433594 40.074219c-2.902344-2.613281-6.664062-4.0625-10.566406-4.078125h-16c-8.832031.011719-15.988281 7.167969-16 16h-24v16h24c.011719 8.832031 7.167969 15.988281 16 16h16c8.832031-.011719 15.988281-7.167969 16-16v-12.003906l53.433594-40.074219c2.902344 2.613281 6.664062 4.0625 10.566406 4.078125h16c3.902344-.015625 7.664062-1.464844 10.566406-4.078125l53.433594 40.074219v12.003906c.011719 8.832031 7.167969 15.988281 16 16h16c8.832031-.011719 15.988281-7.167969 16-16h40.40625c4.332031 47.351562 45.507812 82.691406 92.96875 79.796875 47.464844-2.894531 84.039062-42.976563 82.582031-90.503906-1.453125-47.53125-40.40625-85.3046878-87.957031-85.292969zm-352 96v-16h16l.015625 16zm96-64v-16h16l.015625 16zm96 64v-16h16l.015625 16zm231.527344-16h-55.527344c-4.417969-.003906-7.996094-3.582031-8-8v-55.527344c33.394531 3.78125 59.746094 30.132813 63.527344 63.527344zm-71.527344 80c-38.203125.007812-69.761719-29.835938-71.886719-67.980469s25.917969-71.308593 63.886719-75.546875v55.527344c.015625 13.25 10.75 23.984375 24 24h55.527344c-4.105469 36.414062-34.882813 63.949219-71.527344 64zm0 0"/></svg>