<svg id="Capa_1" enable-background="new 0 0 512 512" height="512" viewBox="0 0 512 512" width="512" xmlns="http://www.w3.org/2000/svg"><g><path d="m256 65.683c4.143 0 7.5-3.358 7.5-7.5v-50.683c0-4.142-3.357-7.5-7.5-7.5s-7.5 3.358-7.5 7.5v50.683c0 4.142 3.357 7.5 7.5 7.5z"/><path d="m111.931 119.456c2.968 2.885 7.717 2.821 10.605-.151 2.888-2.97 2.819-7.718-.15-10.605l-36.874-35.839c-2.971-2.887-7.72-2.819-10.605.151-2.888 2.97-2.819 7.718.15 10.605z"/><path d="m59.647 241.521h-52.147c-4.143 0-7.5 3.358-7.5 7.5s3.357 7.5 7.5 7.5h52.147c4.143 0 7.5-3.358 7.5-7.5s-3.357-7.5-7.5-7.5z"/><path d="m111.931 378.585-36.874 35.838c-2.97 2.887-3.038 7.635-.15 10.605 2.888 2.972 7.638 3.036 10.605.15l36.874-35.838c2.97-2.887 3.038-7.635.15-10.605-2.885-2.969-7.634-3.039-10.605-.15z"/><path d="m400.069 378.585c-2.972-2.888-7.72-2.819-10.605.15-2.888 2.971-2.819 7.719.15 10.605l36.874 35.838c2.968 2.886 7.717 2.822 10.605-.15 2.888-2.971 2.819-7.719-.15-10.605z"/><path d="m504.5 241.521h-52.147c-4.143 0-7.5 3.358-7.5 7.5s3.357 7.5 7.5 7.5h52.147c4.143 0 7.5-3.358 7.5-7.5s-3.357-7.5-7.5-7.5z"/><path d="m426.488 72.861-36.874 35.838c-2.97 2.887-3.038 7.635-.15 10.605 2.888 2.973 7.637 3.036 10.605.151l36.874-35.838c2.97-2.887 3.038-7.635.15-10.605-2.884-2.97-7.633-3.038-10.605-.151z"/><path d="m373.301 137.501c-2.671-3.167-7.402-3.57-10.568-.898-3.167 2.67-3.568 7.402-.898 10.568 20.464 24.266 31.733 55.039 31.733 86.653 0 35.482-13.806 69.037-38.874 94.484-14.387 14.606-26.623 28.576-29.661 48.409h-39.358v-92.252h16.492c16.496 0 29.917-13.421 29.917-29.917v-.272c0-16.496-13.421-29.917-29.917-29.917h-1.576c-16.496 0-29.916 13.42-29.916 29.917v15.189h-26.253v-15.189c0-16.496-13.421-29.917-29.917-29.917h-1.576c-16.496 0-29.917 13.42-29.917 29.917v.272c0 16.496 13.421 29.917 29.917 29.917h16.493v92.252h-39.643c-3.797-19.312-17.734-33.461-31.286-47.206-6.719-6.693-12.803-14.077-17.988-21.975-2.278-3.462-6.93-4.421-10.388-2.144-3.461 2.277-4.42 6.928-2.144 10.388 5.726 8.717 12.428 16.873 19.839 24.262 15.014 15.228 27.979 28.379 27.98 47.101v45.263c0 14.524 7.885 27.234 19.595 34.096v7.927c0 20.717 17.244 37.57 38.439 37.57h47.441c21.195 0 38.439-16.854 38.439-37.57v-7.927c11.709-6.862 19.595-19.572 19.595-34.096v-45.98c.001-19.604 10.809-32.09 26.077-47.59 27.851-28.271 43.188-65.565 43.188-105.012.001-35.148-12.523-69.356-35.265-96.323zm-87.627 116.775c0-8.225 6.691-14.917 14.916-14.917h1.576c8.226 0 14.917 6.691 14.917 14.917v.272c0 8.226-6.691 14.917-14.917 14.917h-16.492zm-87.663.273v-.272c0-8.225 6.691-14.917 14.917-14.917h1.576c8.226 0 14.917 6.691 14.917 14.917v15.189h-16.493c-8.226 0-14.917-6.692-14.917-14.917zm46.41 29.917h26.253v92.252h-26.253zm60.286 189.964c0 12.445-10.515 22.57-23.439 22.57h-47.441c-12.925 0-23.439-10.125-23.439-22.57v-2.839h94.32v2.839zm-4.905-17.524h-84.51c-13.51 0-24.5-10.99-24.5-24.5v-.595h78.615c4.143 0 7.5-3.357 7.5-7.5s-3.357-7.5-7.5-7.5h-78.615v-12.547-12.547h133.51v12.293 12.801h-18.799c-4.143 0-7.5 3.357-7.5 7.5s3.357 7.5 7.5 7.5h18.799v.595c0 13.51-10.99 24.5-24.5 24.5z"/><path d="m118.433 233.824c0-74.786 61.713-135.629 137.567-135.629 29.375 0 57.398 8.998 81.041 26.021 3.362 2.419 8.049 1.658 10.47-1.704 2.42-3.361 1.657-8.048-1.704-10.469-26.212-18.872-57.267-28.848-89.807-28.848-84.126 0-152.567 67.572-152.567 150.629 0 16.749 2.768 33.204 8.226 48.909 1.352 3.95 5.738 5.977 9.546 4.622 3.913-1.359 5.982-5.634 4.622-9.546-4.907-14.118-7.394-28.916-7.394-43.985z"/></g></svg>