<svg id="Layer_1" enable-background="new 0 0 512 512" height="512" viewBox="0 0 512 512" width="512" xmlns="http://www.w3.org/2000/svg"><g><path d="m88.708 241.694v151.767c0 4.143 3.358 7.5 7.5 7.5s7.5-3.357 7.5-7.5v-151.767c0-4.143-3.358-7.5-7.5-7.5s-7.5 3.358-7.5 7.5z"/><path d="m416.081 409.295c-4.142 0-7.5 3.357-7.5 7.5v41.705c0 21.229-17.263 38.5-38.481 38.5h-227.91c-21.219 0-38.482-17.271-38.482-38.5v-29.632c0-4.143-3.358-7.5-7.5-7.5s-7.5 3.357-7.5 7.5v29.632c0 29.5 23.992 53.5 53.482 53.5h227.91c29.49 0 53.481-24 53.481-53.5v-41.705c0-4.143-3.358-7.5-7.5-7.5z"/><path d="m96.208 82.773c4.142 0 7.5-3.357 7.5-7.5v-21.773c0-21.229 17.263-38.5 38.482-38.5h227.91c21.219 0 38.481 17.271 38.481 38.5v41.554c0 4.143 3.358 7.5 7.5 7.5s7.5-3.357 7.5-7.5v-41.554c0-29.5-23.992-53.5-53.481-53.5h-227.91c-29.49 0-53.482 24-53.482 53.5v21.773c0 4.143 3.357 7.5 7.5 7.5z"/><path d="m179.197 51.93-5.878-18.231c-.999-3.099-3.883-5.198-7.138-5.198h-23.735c-13.095 0-23.749 10.656-23.749 23.755v23.019c0 4.143 3.358 7.5 7.5 7.5s7.5-3.357 7.5-7.5v-23.02c0-4.827 3.925-8.755 8.749-8.755h18.273l4.202 13.033c3.465 10.746 13.378 17.967 24.667 17.967h133.114c11.288 0 21.201-7.221 24.667-17.967l4.203-13.033h18.273c4.824 0 8.749 3.928 8.749 8.755v42.799c0 4.143 3.358 7.5 7.5 7.5s7.5-3.357 7.5-7.5v-42.799c0-13.099-10.654-23.755-23.749-23.755h-23.735c-3.255 0-6.139 2.1-7.138 5.198l-5.879 18.231c-1.46 4.528-5.636 7.57-10.39 7.57h-133.116c-4.754.001-8.93-3.041-10.39-7.569z"/><path d="m126.196 234.301c-4.142 0-7.5 3.357-7.5 7.5v217.944c0 13.099 10.654 23.755 23.749 23.755h227.399c13.095 0 23.749-10.656 23.749-23.755v-56.905c0-4.143-3.358-7.5-7.5-7.5s-7.5 3.357-7.5 7.5v56.905c0 4.827-3.925 8.755-8.749 8.755h-227.399c-4.824 0-8.749-3.928-8.749-8.755v-217.944c0-4.143-3.358-7.5-7.5-7.5z"/><path d="m296.804 44.985c4.142 0 7.5-3.357 7.5-7.5s-3.358-7.5-7.5-7.5h-81.32c-4.142 0-7.5 3.357-7.5 7.5s3.358 7.5 7.5 7.5z"/><path d="m296.804 448.723c4.142 0 7.5-3.357 7.5-7.5s-3.358-7.5-7.5-7.5h-81.32c-4.142 0-7.5 3.357-7.5 7.5s3.358 7.5 7.5 7.5z"/><path d="m171.921 196.319v-75.617c0-12.643-10.283-22.929-22.923-22.929h-75.331c-4.142 0-7.5 3.357-7.5 7.5s3.358 7.5 7.5 7.5h75.331c4.369 0 7.923 3.557 7.923 7.929v75.617c0 4.372-3.554 7.929-7.923 7.929h-99.898c-1.639 0-3.233.537-4.538 1.528l-29.562 22.467v-107.541c0-4.372 3.554-7.929 7.923-7.929h16.238c4.142 0 7.5-3.357 7.5-7.5s-3.358-7.5-7.5-7.5h-16.238c-12.64 0-22.923 10.287-22.923 22.929v122.661c0 2.85 1.615 5.453 4.167 6.719 1.056.523 2.196.781 3.332.781 1.61 0 3.209-.518 4.539-1.528l39.588-30.087h97.372c12.64 0 22.923-10.286 22.923-22.929z"/><path d="m133.444 140.944c0-4.143-3.358-7.5-7.5-7.5h-79.968c-4.142 0-7.5 3.357-7.5 7.5s3.358 7.5 7.5 7.5h79.968c4.142 0 7.5-3.357 7.5-7.5z"/><path d="m45.976 167.444c-4.142 0-7.5 3.357-7.5 7.5s3.358 7.5 7.5 7.5h69.973c4.142 0 7.5-3.357 7.5-7.5s-3.358-7.5-7.5-7.5z"/><path d="m295.122 125.273c0 4.143 3.358 7.5 7.5 7.5h156.563c4.309 0 7.814 3.498 7.814 7.798v164.006c0 4.143 3.358 7.5 7.5 7.5s7.5-3.357 7.5-7.5v-164.006c0-12.57-10.234-22.798-22.814-22.798h-156.563c-4.142 0-7.5 3.358-7.5 7.5z"/><path d="m406.686 372.727c0-4.143-3.358-7.5-7.5-7.5h-93.499c-2.287 0-4.449 1.044-5.872 2.834l-24.716 31.103-24.716-31.103c-1.422-1.79-3.584-2.834-5.872-2.834h-29.499c-4.309 0-7.814-3.498-7.814-7.797v-216.859c0-4.3 3.505-7.798 7.814-7.798h52.499c4.142 0 7.5-3.357 7.5-7.5s-3.358-7.5-7.5-7.5h-52.499c-12.58 0-22.814 10.228-22.814 22.798v216.859c0 12.57 10.234 22.797 22.814 22.797h25.879l28.335 35.658c1.423 1.79 3.585 2.834 5.872 2.834s4.449-1.044 5.872-2.834l28.335-35.658h89.879c4.144 0 7.502-3.358 7.502-7.5z"/><path d="m247.516 181.716c0 4.143 3.358 7.5 7.5 7.5h164.992c4.142 0 7.5-3.357 7.5-7.5s-3.358-7.5-7.5-7.5h-164.992c-4.142 0-7.5 3.357-7.5 7.5z"/><path d="m420.008 208.216h-164.992c-4.142 0-7.5 3.357-7.5 7.5s3.358 7.5 7.5 7.5h164.993c4.142 0 7.5-3.357 7.5-7.5s-3.359-7.5-7.501-7.5z"/><path d="m427.508 317.716c0-4.143-3.358-7.5-7.5-7.5h-34.022c-4.142 0-7.5 3.357-7.5 7.5s3.358 7.5 7.5 7.5h34.022c4.142 0 7.5-3.358 7.5-7.5z"/><path d="m255.016 310.216c-4.142 0-7.5 3.357-7.5 7.5s3.358 7.5 7.5 7.5h96.041c4.142 0 7.5-3.357 7.5-7.5s-3.358-7.5-7.5-7.5z"/><path d="m420.007 257.216c4.142 0 7.5-3.357 7.5-7.5s-3.358-7.5-7.5-7.5h-90.529c-4.142 0-7.5 3.357-7.5 7.5s3.358 7.5 7.5 7.5z"/><path d="m293.072 242.216h-38.057c-4.142 0-7.5 3.357-7.5 7.5s3.358 7.5 7.5 7.5h38.057c4.142 0 7.5-3.357 7.5-7.5s-3.358-7.5-7.5-7.5z"/><path d="m247.516 283.716c0 4.143 3.358 7.5 7.5 7.5h164.992c4.142 0 7.5-3.357 7.5-7.5s-3.358-7.5-7.5-7.5h-164.992c-4.142 0-7.5 3.357-7.5 7.5z"/><path d="m466.903 326.481c-24.867 0-45.097 20.23-45.097 45.098 0 24.866 20.23 45.097 45.097 45.097s45.097-20.231 45.097-45.097c0-24.867-20.23-45.098-45.097-45.098zm0 75.195c-16.596 0-30.097-13.501-30.097-30.097s13.501-30.098 30.097-30.098 30.097 13.502 30.097 30.098-13.501 30.097-30.097 30.097z"/></g></svg>