<svg id="Capa_1" enable-background="new 0 0 512 512" height="512" viewBox="0 0 512 512" width="512" xmlns="http://www.w3.org/2000/svg"><g><path d="m224.71 210.36c0 68.091 82.746 102.984 131.33 54.4 30.06-30.06 30.068-78.732 0-108.8-48.071-48.071-131.33-14.335-131.33 54.4zm110.11 33.19c-29.171 29.171-80.11 8.932-80.11-33.19 0-41.961 50.835-62.488 80.11-33.18 18.374 18.354 18.318 48.093 0 66.37z"/><path d="m469.1.18c-96.875 9.142-213.172 38.173-290.06 98.86-34.22-12.6-74.2-5.18-101.63 22.25l-65.27 65.26c-8.756 8.756-3.685 23.817 8.6 25.47l74.79 10.09-21.25 66.82c-2.94 9.24-.5 19.23 6.35 26.08l116.36 116.36c6.866 6.866 16.854 9.271 26.08 6.35l66.82-21.25 10.09 74.79c1.66 12.342 16.759 17.311 25.47 8.6l65.26-65.27c27.43-27.43 34.85-67.41 22.25-101.63 60.874-77.133 89.704-193.035 98.86-290.06 2.329-24.494-18.234-45.046-42.72-42.72zm-414.32 186.16 43.84-43.84c14.57-14.57 34.28-20.94 53.35-19.12-20.49 21.11-36.13 44.56-46.76 70.1-2.138-.764 1.148-.178-50.43-7.14zm161.62 222.02-112.76-112.76 13.7-43.07 142.13 142.13zm153.1 5.02-43.84 43.84c-6.986-51.755-6.39-48.33-7.14-50.43 25.54-10.63 48.99-26.27 70.1-46.76 1.82 19.07-4.55 38.78-19.12 53.35zm-77.65-28.77-164.46-164.46c30.297-95.906 133.052-145.629 230.5-170.44 10.103 52.774 51.566 94.285 104.4 104.4-24.782 97.335-74.352 200.145-170.44 230.5zm190.11-344.54c-2.705 28.467-7.329 58.296-12.88 84.81h-.01c-41.77-7.45-74.5-40.18-81.95-81.95v-.01c26.9-5.632 55.904-10.134 84.81-12.88 5.748-.536 10.568 4.267 10.03 10.03z"/><path d="m65.122 352.343c-.271-8.28-7.2-14.766-15.483-14.501l-35.129 1.15c-8.28.271-14.772 7.203-14.501 15.483.266 8.113 6.925 14.509 14.983 14.509.166 0 .333-.002.5-.008l35.129-1.15c8.28-.272 14.772-7.204 14.501-15.483z"/><path d="m159.657 446.878c-8.255-.261-15.211 6.222-15.483 14.501l-1.15 35.129c-.271 8.28 6.221 15.211 14.501 15.483.167.005.333.008.5.008 8.057 0 14.717-6.396 14.983-14.509l1.15-35.129c.272-8.28-6.22-15.211-14.501-15.483z"/><path d="m93.469 397.318-33.334 33.334c-5.858 5.858-5.858 15.355 0 21.213 5.857 5.858 15.355 5.859 21.213 0l33.334-33.334c5.858-5.858 5.858-15.355 0-21.213-5.857-5.859-15.355-5.859-21.213 0z"/></g></svg>